<?xml version="1.0" encoding="UTF-8" standalone="no"?>
<!-- Created with Inkscape (http://www.inkscape.org/) -->

<svg
   xmlns:dc="http://purl.org/dc/elements/1.1/"
   xmlns:cc="http://creativecommons.org/ns#"
   xmlns:rdf="http://www.w3.org/1999/02/22-rdf-syntax-ns#"
   xmlns:svg="http://www.w3.org/2000/svg"
   xmlns="http://www.w3.org/2000/svg"
   xmlns:sodipodi="http://sodipodi.sourceforge.net/DTD/sodipodi-0.dtd"
   xmlns:inkscape="http://www.inkscape.org/namespaces/inkscape"
   width="110.50403mm"
   height="127mm"
   viewBox="0 0 110.50403 127"
   version="1.1"
   id="svg8"
   inkscape:version="0.92.3 (2405546, 2018-03-11)"
   sodipodi:docname="logofr_blanc.svg">
  <defs
     id="defs2">
    <clipPath
       id="clipPath4557"
       clipPathUnits="userSpaceOnUse">
      <path
         inkscape:connector-curvature="0"
         id="path4555"
         d="M 0,1190.55 H 841.89 V 0 H 0 Z" />
    </clipPath>
  </defs>
  <sodipodi:namedview
     id="base"
     pagecolor="#ffffff"
     bordercolor="#666666"
     borderopacity="1.0"
     inkscape:pageopacity="0.0"
     inkscape:pageshadow="2"
     inkscape:zoom="1.4"
     inkscape:cx="113.34089"
     inkscape:cy="191.90608"
     inkscape:document-units="mm"
     inkscape:current-layer="layer1"
     showgrid="false"
     fit-margin-top="0"
     fit-margin-left="0"
     fit-margin-right="0"
     fit-margin-bottom="0"
     inkscape:window-width="1920"
     inkscape:window-height="1025"
     inkscape:window-x="0"
     inkscape:window-y="27"
     inkscape:window-maximized="1" />
  <metadata
     id="metadata5">
    <rdf:RDF>
      <cc:Work
         rdf:about="">
        <dc:format>image/svg+xml</dc:format>
        <dc:type
           rdf:resource="http://purl.org/dc/dcmitype/StillImage" />
        <dc:title></dc:title>
      </cc:Work>
    </rdf:RDF>
  </metadata>
  <g
     inkscape:label="Capa 1"
     inkscape:groupmode="layer"
     id="layer1"
     transform="translate(332.31466,-156.59897)">
    <path
       inkscape:connector-curvature="0"
       id="path4549"
       style="fill:#ffffff;fill-opacity:1;fill-rule:nonzero;stroke:none;stroke-width:0.16257696"
       d="m -294.31853,262.28279 h 4.18749 v -5.86464 h 6.01243 v -3.35429 h -6.01243 v -1.67714 h 8.79721 v -4.1875 h -12.9847 z" />
    <g
       id="g4559"
       transform="matrix(0.16257696,0,0,-0.16257696,-271.70366,253.88658)"
       style="fill:#ffffff">
      <path
         d="m 0,0 c -1.73,-1.774 -3.851,-2.66 -6.358,-2.66 h -19.334 v 18.037 h 19.334 c 2.507,0 4.628,-0.888 6.358,-2.66 C 1.772,10.942 2.66,8.823 2.66,6.358 2.66,3.85 1.772,1.729 0,0 m 23.811,-10.965 c 3.07,5.363 4.607,11.137 4.607,17.323 0,9.602 -3.397,17.799 -10.187,24.589 C 11.44,37.738 3.244,41.134 -6.358,41.134 H -51.45 v -92.779 h 25.758 v 23.228 h 10.445 l 13.755,-23.228 h 29.91 l -16.74,28.224 c 5.103,3.113 9.148,7.266 12.133,12.456"
         style="fill:#ffffff;fill-opacity:1;fill-rule:nonzero;stroke:none"
         id="path4561"
         inkscape:connector-curvature="0" />
    </g>
    <g
       id="g4563"
       transform="matrix(0.16257696,0,0,-0.16257696,-255.9029,257.11431)"
       style="fill:#ffffff">
      <path
         d="m 0,0 c -4.065,-4.022 -8.932,-6.033 -14.598,-6.033 -5.667,0 -10.533,2.011 -14.597,6.033 -4.024,4.065 -6.034,8.932 -6.034,14.599 0,5.665 2.01,10.531 6.034,14.597 4.064,4.023 8.93,6.034 14.597,6.034 C -8.932,35.23 -4.065,33.219 0,29.196 4.022,25.13 6.034,20.264 6.034,14.599 6.034,8.932 4.022,4.065 0,0 m -14.598,60.987 c -12.803,0 -23.724,-4.542 -32.763,-13.625 -9.084,-9.04 -13.625,-19.961 -13.625,-32.763 0,-12.804 4.541,-23.725 13.625,-32.765 9.039,-9.083 19.96,-13.625 32.763,-13.625 12.803,0 23.724,4.542 32.764,13.625 9.084,9.04 13.625,19.961 13.625,32.765 0,12.801 -4.541,23.723 -13.625,32.763 -9.04,9.084 -19.961,13.625 -32.764,13.625"
         style="fill:#ffffff;fill-opacity:1;fill-rule:nonzero;stroke:none"
         id="path4565"
         inkscape:connector-curvature="0" />
    </g>
    <g
       id="g4567"
       transform="matrix(0.16257696,0,0,-0.16257696,-240.67162,254.38241)"
       style="fill:#ffffff">
      <path
         d="M 0,0 -30.883,44.184 H -54.11 v -92.779 h 25.757 V -4.411 L 2.595,-48.595 H 25.757 V 44.184 H 0 Z"
         style="fill:#ffffff;fill-opacity:1;fill-rule:nonzero;stroke:none"
         id="path4569"
         inkscape:connector-curvature="0" />
    </g>
    <g
       id="g4571"
       transform="matrix(0.16257696,0,0,-0.16257696,-235.21831,247.19918)"
       style="fill:#ffffff">
      <path
         d="m 0,0 v -25.757 h 28.353 v -67.021 h 25.756 v 67.021 H 82.462 V 0 Z"
         style="fill:#ffffff;fill-opacity:1;fill-rule:nonzero;stroke:none"
         id="path4573"
         inkscape:connector-curvature="0" />
    </g>
    <g
       id="g4575"
       transform="matrix(0.16257696,0,0,-0.16257696,-292.31298,268.13016)"
       style="fill:#ffffff">
      <path
         d="m 0,0 v -34.501 h 5.25 c 2.393,0 4.107,0.178 5.144,0.535 3.536,1.464 5.303,4.304 5.303,8.518 v 16.34 C 15.697,-3.036 12.875,0 7.232,0 Z M -12.375,12.161 H 8.84 C 21.662,12.125 28.073,5.035 28.073,-9.108 v -16.34 c 0,-8.823 -4.269,-14.804 -12.804,-17.947 L 32.68,-93.378 19.019,-93.379 4.822,-45.322 0,-45.967 v -47.411 l -12.375,-0.001 z"
         style="fill:#ffffff;fill-opacity:1;fill-rule:nonzero;stroke:none"
         id="path4577"
         inkscape:connector-curvature="0" />
    </g>
    <g
       id="g4579"
       transform="matrix(0.16257696,0,0,-0.16257696,-279.87903,273.73923)"
       style="fill:#ffffff">
      <path
         d="m 0,0 v -12.216 l -21.537,10e-4 v -34.501 l 25.019,-10e-4 v -12.16 H -33.912 V 46.662 H 3.482 V 34.501 H -21.537 V 0 Z"
         style="fill:#ffffff;fill-opacity:1;fill-rule:nonzero;stroke:none"
         id="path4581"
         inkscape:connector-curvature="0" />
    </g>
    <g
       id="g4583"
       transform="matrix(0.16257696,0,0,-0.16257696,-275.2578,268.13016)"
       style="fill:#ffffff">
      <path
         d="m 0,0 v -34.501 h 5.25 c 2.393,0 4.107,0.178 5.144,0.535 3.536,1.464 5.303,4.304 5.303,8.518 V -9.107 C 15.697,-3.036 12.875,0 7.232,0 Z M -12.375,12.16 H 8.84 C 21.661,12.125 28.072,5.036 28.072,-9.107 v -16.34 c 0,-10.43 -4.625,-17.144 -13.875,-20.144 -2.251,-0.75 -5.571,-1.126 -9.965,-1.126 H 0 v -46.662 h -12.375 z"
         style="fill:#ffffff;fill-opacity:1;fill-rule:nonzero;stroke:none"
         id="path4585"
         inkscape:connector-curvature="0" />
    </g>
    <g
       id="g4587"
       transform="matrix(0.16257696,0,0,-0.16257696,-261.94427,280.14101)"
       style="fill:#ffffff">
      <path
         d="m 0,0 c 0,-14.144 -6.964,-21.232 -20.894,-21.269 -13.928,0 -20.893,7.089 -20.893,21.27 v 86.092 h 12.376 V 0.001 c 0,-6.037 2.839,-9.055 8.517,-9.055 5.679,0 8.519,3.018 8.519,9.054 V 86.093 H 0 Z"
         style="fill:#ffffff;fill-opacity:1;fill-rule:nonzero;stroke:none"
         id="path4589"
         inkscape:connector-curvature="0" />
    </g>
    <g
       id="g4591"
       transform="matrix(0.16257696,0,0,-0.16257696,-257.54057,275.72524)"
       style="fill:#ffffff">
      <path
         d="m 0,0 v -34.501 h 8.571 c 5.643,0 8.464,3.019 8.464,9.055 v 16.392 c 0,4.25 -1.767,7.073 -5.304,8.465 -1,0.393 -2.713,0.59 -5.142,0.589 z m 0,46.716 v -34.5 h 6.589 c 2.391,0 4.106,0.178 5.142,0.535 3.537,1.464 5.304,4.304 5.304,8.519 v 16.339 c 0,6.072 -2.821,9.108 -8.464,9.108 z M -12.377,58.877 H 10.179 C 23,58.842 29.41,51.752 29.41,37.608 V 21.269 C 29.41,14.804 25.894,9.751 18.857,6.107 25.894,2.466 29.41,-2.59 29.41,-9.054 v -16.393 c 0,-14.109 -6.767,-21.179 -20.304,-21.214 l -21.483,-10e-4 z"
         style="fill:#ffffff;fill-opacity:1;fill-rule:nonzero;stroke:none"
         id="path4593"
         inkscape:connector-curvature="0" />
    </g>
    <g
       id="g4595"
       transform="matrix(0.16257696,0,0,-0.16257696,-250.54183,283.31126)"
       style="fill:#ffffff">
      <path
         d="M 0,0 V 105.539 H 12.376 V 12.161 L 37.396,12.16 V 0 Z"
         style="fill:#ffffff;fill-opacity:1;fill-rule:nonzero;stroke:none"
         id="path4597"
         inkscape:connector-curvature="0" />
    </g>
    <path
       d="m -242.7242,266.15302 h 2.01222 v 17.15821 h -2.01222 z"
       style="fill:#ffffff;fill-opacity:1;fill-rule:nonzero;stroke:none;stroke-width:0.16257696"
       id="path4599"
       inkscape:connector-curvature="0" />
    <g
       id="g4601"
       transform="matrix(0.16257696,0,0,-0.16257696,-231.57066,280.14974)"
       style="fill:#ffffff">
      <path
         d="m 0,0 c 0,-14.108 -6.964,-21.179 -20.893,-21.216 -13.929,0 -20.893,7.072 -20.893,21.216 v 66.646 c 0,14.107 6.964,21.161 20.893,21.161 C -6.964,87.808 0,80.753 0,66.646 V 53.627 h -12.375 v 13.019 c 0,5.963 -2.822,8.963 -8.465,9 h -0.107 c -5.643,0 -8.464,-3 -8.464,-9 V 0 c 0,-6 2.84,-9 8.518,-9 5.678,0 8.518,3 8.518,9 V 13.019 H 0 Z"
         style="fill:#ffffff;fill-opacity:1;fill-rule:nonzero;stroke:none"
         id="path4603"
         inkscape:connector-curvature="0" />
    </g>
    <g
       id="g4605"
       transform="matrix(0.16257696,0,0,-0.16257696,-224.61508,277.57153)"
       style="fill:#ffffff">
      <path
         d="M 0,0 -7.876,59.627 -15.75,0 Z m -24.322,86.199 9.965,-0.001 11.625,-10.66 h -7.554 l -14.036,9.001 z M 12.322,1.446 17.25,-35.305 4.661,-35.306 1.607,-12.215 h -18.912 l -3.106,-23.091 h -12.483 l 4.822,36.537 10.875,69.002 18.697,10e-4 z"
         style="fill:#ffffff;fill-opacity:1;fill-rule:nonzero;stroke:none"
         id="path4607"
         inkscape:connector-curvature="0" />
    </g>
    <g
       id="g4609"
       transform="matrix(0.16257696,0,0,-0.16257696,-252.6596,179.97082)"
       style="fill:#ffffff">
      <path
         d="m 0,0 0.001,143.71 c -1.532,0.031 -3.069,0.048 -4.614,0.048 H -256.28 v -517.819 h 143.759 v 129.636 h 58.006 l 54.516,71.879 -54.516,71.878 h -58.006 V 0 Z"
         style="fill:#ffffff;fill-opacity:1;fill-rule:nonzero;stroke:none"
         id="path4611"
         inkscape:connector-curvature="0" />
    </g>
    <g
       id="g4613"
       transform="matrix(0.16257696,0,0,-0.16257696,-226.03445,203.8725)"
       style="fill:#ffffff">
      <path
         d="m 0,0 c 17.138,29.931 25.709,62.159 25.709,96.685 0,53.591 -18.953,99.336 -56.852,137.237 -32.282,32.279 -70.253,50.813 -113.918,55.601 v -0.104 -143.899 -4.099 c 4.38,-2.346 8.436,-5.428 12.167,-9.25 9.896,-9.902 14.847,-21.728 14.847,-35.486 0,-14.004 -4.951,-25.835 -14.847,-35.489 -9.659,-9.9 -21.489,-14.847 -35.489,-14.847 h -27.203 l 55.127,-71.855 -61.44,-82.308 70.643,-119.229 H 25.709 L -67.714,-69.524 C -39.231,-52.144 -16.657,-28.969 0,0"
         style="fill:#ffffff;fill-opacity:1;fill-rule:nonzero;stroke:none"
         id="path4615"
         inkscape:connector-curvature="0" />
    </g>
    <g
       id="g4617"
       transform="matrix(0.16257696,0,0,-0.16257696,-308.10239,185.27625)"
       style="fill:#ffffff" />
    <g
       id="g4621"
       transform="matrix(0.16257696,0,0,-0.16257696,-331.38504,188.29797)"
       style="fill:#ffffff">
      <path
         d="m 0,0 v -9.218 h 1.066 c 0.645,0 1.088,0.044 1.329,0.132 0.842,0.338 1.263,1.022 1.263,2.05 v 4.838 C 3.658,-0.732 2.985,0 1.64,0 Z M -4.642,4.576 H 2.116 C 6.238,4.565 8.299,2.307 8.299,-2.198 v -4.838 c 0,-3.324 -1.481,-5.468 -4.445,-6.43 -0.71,-0.23 -1.744,-0.345 -3.1,-0.345 H 0 v -13.793 h -4.642 z"
         style="fill:#ffffff;fill-opacity:1;fill-rule:nonzero;stroke:none"
         id="path4623"
         inkscape:connector-curvature="0" />
    </g>
    <g
       id="g4625"
       transform="matrix(0.16257696,0,0,-0.16257696,-328.1158,188.56994)"
       style="fill:#ffffff">
      <path
         d="M 0,0 C 0,1.443 -0.672,2.17 -2.017,2.182 H -2.05 C -3.384,2.182 -4.051,1.454 -4.051,0 v -19.683 c 0,-1.454 0.673,-2.181 2.017,-2.181 1.356,0 2.034,0.727 2.034,2.181 z m 4.642,-19.683 c 0,-4.504 -2.225,-6.762 -6.676,-6.774 -4.439,0 -6.659,2.258 -6.659,6.774 V 0 c 0,4.505 2.22,6.758 6.659,6.758 4.451,0 6.676,-2.253 6.676,-6.758 z"
         style="fill:#ffffff;fill-opacity:1;fill-rule:nonzero;stroke:none"
         id="path4627"
         inkscape:connector-curvature="0" />
    </g>
    <g
       id="g4629"
       transform="matrix(0.16257696,0,0,-0.16257696,-325.9665,190.54325)"
       style="fill:#ffffff">
      <path
         d="m 0,0 v -9.218 h 2.034 c 1.345,0 2.017,0.727 2.017,2.182 v 4.855 c 0,1.027 -0.421,1.705 -1.262,2.034 C 2.548,-0.049 2.105,0 1.46,0 Z M 0,13.811 V 4.593 h 1.46 c 0.645,0 1.088,0.043 1.329,0.131 0.841,0.339 1.262,1.022 1.262,2.05 v 4.839 c 0,1.465 -0.672,2.198 -2.017,2.198 z m -4.642,4.576 H 2.51 C 6.632,18.376 8.693,16.118 8.693,11.613 V 6.774 C 8.693,4.664 7.846,3.171 6.151,2.296 7.846,1.421 8.693,-0.071 8.693,-2.181 v -4.855 c 0,-4.494 -2.159,-6.747 -6.479,-6.758 h -6.856 z"
         style="fill:#ffffff;fill-opacity:1;fill-rule:nonzero;stroke:none"
         id="path4631"
         inkscape:connector-curvature="0" />
    </g>
    <g
       id="g4633"
       transform="matrix(0.16257696,0,0,-0.16257696,-323.93993,192.78582)"
       style="fill:#ffffff">
      <path
         d="M 0,0 V 32.181 H 4.642 V 4.576 h 7.397 V 0 Z"
         style="fill:#ffffff;fill-opacity:1;fill-rule:nonzero;stroke:none"
         id="path4635"
         inkscape:connector-curvature="0" />
    </g>
    <g
       id="g4637"
       transform="matrix(0.16257696,0,0,-0.16257696,-321.52928,187.55398)"
       style="fill:#ffffff">
      <path
         d="M 0,0 H 12.039 V -4.576 H 4.642 v -9.218 h 6.364 v -4.593 H 4.642 v -9.217 h 7.397 v -4.577 H 0 Z"
         style="fill:#ffffff;fill-opacity:1;fill-rule:nonzero;stroke:none"
         id="path4639"
         inkscape:connector-curvature="0" />
    </g>
    <g
       id="g4641"
       transform="matrix(0.16257696,0,0,-0.16257696,-317.65737,192.78582)"
       style="fill:#ffffff">
      <path
         d="M 0,0 V 32.181 H 4.642 V 4.576 h 7.397 V 0 Z"
         style="fill:#ffffff;fill-opacity:1;fill-rule:nonzero;stroke:none"
         id="path4643"
         inkscape:connector-curvature="0" />
    </g>
    <g
       id="g4645"
       transform="matrix(0.16257696,0,0,-0.16257696,-315.24682,192.78582)"
       style="fill:#ffffff">
      <path
         d="M 0,0 V 32.181 H 4.642 V 4.576 h 7.397 V 0 Z"
         style="fill:#ffffff;fill-opacity:1;fill-rule:nonzero;stroke:none"
         id="path4647"
         inkscape:connector-curvature="0" />
    </g>
    <path
       d="m -312.82283,187.55405 h 0.75468 v 5.23189 h -0.75468 z"
       style="fill:#ffffff;fill-opacity:1;fill-rule:nonzero;stroke:none;stroke-width:0.16257696"
       id="path4649"
       inkscape:connector-curvature="0" />
    <g
       id="g4651"
       transform="matrix(0.16257696,0,0,-0.16257696,-309.22027,191.76988)"
       style="fill:#ffffff">
      <path
         d="m 0,0 c 0,-4.505 -2.226,-6.763 -6.676,-6.774 -4.439,0 -6.659,2.258 -6.659,6.774 v 25.932 h 4.642 V 0 c 0,-1.454 0.672,-2.181 2.017,-2.181 1.356,0 2.034,0.727 2.034,2.181 V 25.932 H 0 Z"
         style="fill:#ffffff;fill-opacity:1;fill-rule:nonzero;stroke:none"
         id="path4653"
         inkscape:connector-curvature="0" />
    </g>
    <g
       id="g4655"
       transform="matrix(0.16257696,0,0,-0.16257696,-307.79899,188.29797)"
       style="fill:#ffffff">
      <path
         d="m 0,0 v -9.218 h 1.066 c 0.645,0 1.088,0.044 1.329,0.132 0.842,0.338 1.263,1.022 1.263,2.05 v 4.838 C 3.658,-0.732 2.985,0 1.64,0 Z M -4.642,4.576 H 2.116 C 6.238,4.565 8.299,2.307 8.299,-2.198 v -4.838 c 0,-2.833 -1.219,-4.697 -3.657,-5.593 L 9.858,-27.604 H 4.773 L 0.591,-13.45 0,-13.532 v -14.072 h -4.642 z"
         style="fill:#ffffff;fill-opacity:1;fill-rule:nonzero;stroke:none"
         id="path4657"
         inkscape:connector-curvature="0" />
    </g>
    <g
       id="g4659"
       transform="matrix(0.16257696,0,0,-0.16257696,-305.76972,187.55398)"
       style="fill:#ffffff">
      <path
         d="M 0,0 H 12.039 V -4.576 H 4.642 v -9.218 h 6.364 v -4.593 H 4.642 v -9.217 h 7.397 v -4.577 H 0 Z"
         style="fill:#ffffff;fill-opacity:1;fill-rule:nonzero;stroke:none"
         id="path4661"
         inkscape:connector-curvature="0" />
    </g>
    <g
       id="g4663"
       transform="matrix(0.16257696,0,0,-0.16257696,-308.10239,230.78001)"
       style="fill:#ffffff" />
    <g
       id="g4667"
       transform="matrix(0.16257696,0,0,-0.16257696,-330.11309,236.43352)"
       style="fill:#ffffff">
      <path
         d="M 0,0 -1.771,13.384 -3.542,0 Z M 4.691,0 6.2,-11.416 H 1.509 l -0.902,6.823 h -4.74 l -0.919,-6.823 h -4.674 l 1.509,11.366 3.28,20.815 h 6.364 z"
         style="fill:#ffffff;fill-opacity:1;fill-rule:nonzero;stroke:none"
         id="path4669"
         inkscape:connector-curvature="0" />
    </g>
    <g
       id="g4671"
       transform="matrix(0.16257696,0,0,-0.16257696,-328.65172,238.2895)"
       style="fill:#ffffff">
      <path
         d="M 0,0 V 32.181 H 4.642 V 4.576 h 7.397 V 0 Z"
         style="fill:#ffffff;fill-opacity:1;fill-rule:nonzero;stroke:none"
         id="path4673"
         inkscape:connector-curvature="0" />
    </g>
    <g
       id="g4675"
       transform="matrix(0.16257696,0,0,-0.16257696,-324.57721,233.05768)"
       style="fill:#ffffff">
      <path
         d="m 0,0 v -4.576 h -4.346 v -27.605 h -4.642 v 27.605 h -4.346 V 0 Z"
         style="fill:#ffffff;fill-opacity:1;fill-rule:nonzero;stroke:none"
         id="path4677"
         inkscape:connector-curvature="0" />
    </g>
    <g
       id="g4679"
       transform="matrix(0.16257696,0,0,-0.16257696,-324.09719,233.05768)"
       style="fill:#ffffff">
      <path
         d="M 0,0 H 12.039 V -4.576 H 4.642 v -9.218 h 6.364 v -4.593 H 4.642 v -9.217 h 7.397 v -4.577 H 0 Z"
         style="fill:#ffffff;fill-opacity:1;fill-rule:nonzero;stroke:none"
         id="path4681"
         inkscape:connector-curvature="0" />
    </g>
    <g
       id="g4683"
       transform="matrix(0.16257696,0,0,-0.16257696,-320.82533,233.80165)"
       style="fill:#ffffff">
      <path
         d="m 0,0 v -9.218 h 1.066 c 0.645,0 1.088,0.043 1.329,0.131 0.842,0.339 1.263,1.023 1.263,2.051 v 4.838 C 3.658,-0.732 2.985,0 1.64,0 Z M -4.642,4.576 H 2.116 C 6.238,4.565 8.299,2.307 8.299,-2.198 v -4.838 c 0,-2.833 -1.219,-4.697 -3.657,-5.594 L 9.858,-27.604 H 4.773 L 0.591,-13.45 0,-13.532 v -14.072 h -4.642 z"
         style="fill:#ffffff;fill-opacity:1;fill-rule:nonzero;stroke:none"
         id="path4685"
         inkscape:connector-curvature="0" />
    </g>
    <g
       id="g4687"
       transform="matrix(0.16257696,0,0,-0.16257696,-318.79604,233.05768)"
       style="fill:#ffffff">
      <path
         d="M 0,0 H 4.642 L 9.038,-18.666 V 0 h 4.297 V -32.181 H 8.693 L 4.461,-14.105 V -32.181 H 0 Z"
         style="fill:#ffffff;fill-opacity:1;fill-rule:nonzero;stroke:none"
         id="path4689"
         inkscape:connector-curvature="0" />
    </g>
    <g
       id="g4691"
       transform="matrix(0.16257696,0,0,-0.16257696,-314.59349,236.43352)"
       style="fill:#ffffff">
      <path
         d="M 0,0 -1.771,13.384 -3.542,0 Z M 4.691,0 6.2,-11.416 H 1.509 l -0.902,6.823 h -4.74 l -0.919,-6.823 h -4.674 l 1.509,11.366 3.28,20.815 h 6.364 z"
         style="fill:#ffffff;fill-opacity:1;fill-rule:nonzero;stroke:none"
         id="path4693"
         inkscape:connector-curvature="0" />
    </g>
    <g
       id="g4695"
       transform="matrix(0.16257696,0,0,-0.16257696,-311.26027,233.05768)"
       style="fill:#ffffff">
      <path
         d="m 0,0 v -4.576 h -4.346 v -27.605 h -4.642 v 27.605 h -4.346 V 0 Z"
         style="fill:#ffffff;fill-opacity:1;fill-rule:nonzero;stroke:none"
         id="path4697"
         inkscape:connector-curvature="0" />
    </g>
    <path
       d="m -310.76688,233.05771 h 0.75468 v 5.23189 h -0.75468 z"
       style="fill:#ffffff;fill-opacity:1;fill-rule:nonzero;stroke:none;stroke-width:0.16257696"
       id="path4699"
       inkscape:connector-curvature="0" />
    <g
       id="g4701"
       transform="matrix(0.16257696,0,0,-0.16257696,-307.73232,238.2895)"
       style="fill:#ffffff">
      <path
         d="m 0,0 h -6.364 l -3.281,20.798 -1.508,11.383 h 4.691 l 3.263,-24.8 3.281,24.8 H 4.773 L 3.264,20.765 Z"
         style="fill:#ffffff;fill-opacity:1;fill-rule:nonzero;stroke:none"
         id="path4703"
         inkscape:connector-curvature="0" />
    </g>
    <g
       id="g4705"
       transform="matrix(0.16257696,0,0,-0.16257696,-305.2658,236.43352)"
       style="fill:#ffffff">
      <path
         d="M 0,0 -1.771,13.384 -3.542,0 Z M 4.691,0 6.2,-11.416 H 1.509 l -0.902,6.823 h -4.74 l -0.919,-6.823 h -4.674 l 1.509,11.366 3.28,20.815 h 6.364 z"
         style="fill:#ffffff;fill-opacity:1;fill-rule:nonzero;stroke:none"
         id="path4707"
         inkscape:connector-curvature="0" />
    </g>
    <g
       id="g1457"
       style="fill:#ffffff;fill-opacity:1">
      <g
         transform="matrix(0.16257696,0,0,-0.16257696,-317.96451,271.83942)"
         id="g4767"
         style="fill:#ffffff;fill-opacity:1" />
    </g>
    <g
       id="g4709"
       transform="matrix(0.16257696,0,0,-0.16257696,-308.10239,275.87749)"
       style="fill:#ffffff">
      <path
         id="path4711"
         style="fill:#ffffff;fill-opacity:1;fill-rule:evenodd;stroke:none"
         d="m 0,0 h -121.465 c -15.104,0 -27.463,12.358 -27.463,27.463 v 121.465 c 0,15.105 12.359,27.464 27.463,27.464 H 0 c 15.105,0 27.463,-12.359 27.463,-27.464 V 27.463 C 27.463,12.358 15.105,0 0,0 m -60.66124,24.837898 c -33.611,-0.037 -60.893,27.178 -60.931,60.791 -0.039,33.611002 27.175,60.891002 60.786,60.928002 33.614,0.04 60.89399993,-27.175 60.93299993,-60.786002 0.038,-33.614 -27.17699993,-60.893 -60.78799993,-60.933 m -19.364,93.850002 c 10.069,-2.409 21.899,-10.11 17.992,-28.704002 -1.942,-9.255 -12.049,-14.1 -17.937,-18.107 z m -5.595,13.935 0.013,-10.325 c -3.798,-1.16 -5.984,-2.365 -5.628,-3.135 1.248,0.363 3.245,0.528 5.63,0.376 l 0.062,-53.650002 c -5.788,-11.182 2.53,-28.313 2.53,-28.313 0,0 -6.182,18.283 7.524,26.953 12.612,7.976 56.128,4.286 55.951,28.843 -0.254,34.784002 -40.373,34.526002 -60.495,30.332002 l -0.009,8.927 z" />
    </g>
    <g
       id="g4713"
       transform="matrix(0.16257696,0,0,-0.16257696,-325.57586,278.8177)"
       style="fill:#ffffff">
      <path
         d="m 0,0 v -9.218 h 1.066 c 0.645,0 1.088,0.043 1.329,0.131 0.842,0.339 1.263,1.023 1.263,2.051 v 4.838 C 3.658,-0.732 2.985,0 1.64,0 Z M -4.642,4.576 H 2.116 C 6.238,4.565 8.299,2.307 8.299,-2.198 v -4.838 c 0,-3.324 -1.481,-5.468 -4.445,-6.43 -0.71,-0.23 -1.744,-0.345 -3.1,-0.345 H 0 v -13.793 h -4.642 z"
         style="fill:#ffffff;fill-opacity:1;fill-rule:nonzero;stroke:none"
         id="path4715"
         inkscape:connector-curvature="0" />
    </g>
    <path
       d="m -323.65322,278.07365 h 0.75468 v 5.23189 h -0.75468 z"
       style="fill:#ffffff;fill-opacity:1;fill-rule:nonzero;stroke:none;stroke-width:0.16257696"
       id="path4717"
       inkscape:connector-curvature="0" />
    <g
       id="g4719"
       transform="matrix(0.16257696,0,0,-0.16257696,-321.43728,278.8177)"
       style="fill:#ffffff">
      <path
         d="m 0,0 v -9.218 h 1.066 c 0.645,0 1.088,0.043 1.329,0.131 0.842,0.339 1.263,1.023 1.263,2.051 v 4.838 C 3.658,-0.732 2.985,0 1.64,0 Z M -4.642,4.576 H 2.116 C 6.238,4.565 8.299,2.307 8.299,-2.198 v -4.838 c 0,-2.833 -1.219,-4.697 -3.657,-5.594 L 9.858,-27.604 H 4.773 L 0.591,-13.45 0,-13.532 v -14.072 h -4.642 z"
         style="fill:#ffffff;fill-opacity:1;fill-rule:nonzero;stroke:none"
         id="path4721"
         inkscape:connector-curvature="0" />
    </g>
    <g
       id="g4723"
       transform="matrix(0.16257696,0,0,-0.16257696,-318.06675,281.44957)"
       style="fill:#ffffff">
      <path
         d="M 0,0 -1.771,13.384 -3.542,0 Z M 4.691,0 6.2,-11.416 H 1.509 l -0.902,6.823 h -4.74 l -0.919,-6.823 h -4.674 l 1.509,11.366 3.28,20.815 h 6.364 z"
         style="fill:#ffffff;fill-opacity:1;fill-rule:nonzero;stroke:none"
         id="path4725"
         inkscape:connector-curvature="0" />
    </g>
    <g
       id="g4727"
       transform="matrix(0.16257696,0,0,-0.16257696,-314.73352,278.07371)"
       style="fill:#ffffff">
      <path
         d="m 0,0 v -4.576 h -4.346 v -27.605 h -4.642 v 27.605 h -4.346 V 0 Z"
         style="fill:#ffffff;fill-opacity:1;fill-rule:nonzero;stroke:none"
         id="path4729"
         inkscape:connector-curvature="0" />
    </g>
    <g
       id="g4731"
       transform="matrix(0.16257696,0,0,-0.16257696,-314.25349,278.07371)"
       style="fill:#ffffff">
      <path
         d="M 0,0 H 12.039 V -4.576 H 4.642 v -9.218 h 6.364 v -4.593 H 4.642 v -9.217 h 7.397 v -4.577 H 0 Z"
         style="fill:#ffffff;fill-opacity:1;fill-rule:nonzero;stroke:none"
         id="path4733"
         inkscape:connector-curvature="0" />
    </g>
    <g
       id="g4735"
       transform="matrix(0.16257696,0,0,-0.16257696,-311.78959,279.08965)"
       style="fill:#ffffff">
      <path
         d="m 0,0 c 0,4.505 2.22,6.758 6.659,6.758 4.45,0 6.676,-2.253 6.676,-6.758 V -4.33 H 8.693 V 0 c 0,1.443 -0.672,2.17 -2.017,2.182 H 6.643 C 5.309,2.182 4.642,1.454 4.642,0 v -2.92 c 0,-1.433 1.448,-3.187 4.346,-5.265 2.898,-2.067 4.347,-4.544 4.347,-7.43 v -4.068 c 0,-4.516 -2.22,-6.774 -6.659,-6.774 C 2.225,-26.445 0,-24.187 0,-19.683 v 4.33 h 4.642 v -4.33 c 0,-1.454 0.678,-2.181 2.034,-2.181 1.345,0 2.017,0.727 2.017,2.181 v 3.674 c 0,1.553 -1.449,3.368 -4.346,5.446 C 1.449,-8.496 0,-5.981 0,-3.019 Z"
         style="fill:#ffffff;fill-opacity:1;fill-rule:nonzero;stroke:none"
         id="path4737"
         inkscape:connector-curvature="0" />
    </g>
    <g
       id="g1447"
       style="fill:#ffffff;fill-opacity:1">
      <g
         transform="matrix(0.16257696,0,0,-0.16257696,-314.77211,174.89005)"
         id="g4739"
         style="fill:#ffffff;fill-opacity:1" />
      <g
         transform="matrix(0.16257696,0,0,-0.16257696,-310.09214,168.84747)"
         id="g4743"
         style="fill:#ffffff;fill-opacity:1" />
      <g
         transform="matrix(0.16257696,0,0,-0.16257696,-323.19269,169.52875)"
         id="g4747"
         style="fill:#ffffff;fill-opacity:1" />
      <g
         transform="matrix(0.16257696,0,0,-0.16257696,-318.41452,166.11241)"
         id="g4751"
         style="fill:#ffffff;fill-opacity:1" />
      <g
         transform="matrix(0.16257696,0,0,-0.16257696,-323.00803,163.30842)"
         id="g4755"
         style="fill:#ffffff;fill-opacity:1" />
      <g
         transform="matrix(0.16257696,0,0,-0.16257696,-314.21444,168.28767)"
         id="g4759"
         style="fill:#ffffff;fill-opacity:1" />
      <g
         transform="matrix(0.16257696,0,0,-0.16257696,-323.35494,176.88401)"
         id="g4763"
         style="fill:#ffffff;fill-opacity:1">
        <path
           id="path4765"
           style="fill:#ffffff;fill-opacity:1;fill-rule:nonzero;stroke:none"
           d="m 0,0 c 3.6,-1.089 6.55,0.561 7.044,0.848 1.147,0.639 2.783,1.81 3.535,3.772 0.775,2.024 0.33,3.979 -0.03,4.917 -6.681,17.418 -11.57,30.094 -12.698,33.123 -0.126,0.339 -0.489,1.317 -1.309,2.27 -1.679,1.952 -4.016,2.311 -4.969,2.402 -3.176,0.304 -5.323,-1.529 -5.798,-1.958 -0.006,-0.006 -0.013,-0.012 -0.02,-0.017 -1.132,-0.871 -2.654,-2.252 -4.08,-4.311 -1.448,-2.091 -2.267,-4.119 -2.737,-5.576 -0.241,-0.75 -0.439,-1.44 -0.528,-2.235 0,0 -0.056,-0.536 -0.049,-1.074 0.025,-1.76 0.755,-3.465 1.057,-4.117 0.002,-0.004 0.004,-0.007 0.005,-0.009 0.005,-0.01 0.01,-0.018 0.014,-0.023 0,-0.001 0,-0.001 10e-4,-0.002 0,-0.002 5.179,-8.026 15.564,-24.12 C -4.635,3.295 -3.106,0.939 0,0 m 56.222604,52.875512 c 0.008,-0.115 0.028,-0.441 0.252,-0.598 0.187,-0.13 0.436,-0.088 0.583,-0.048 0.149,0.06 0.393,0.156 0.692,0.273 4.38,1.699 8.343,3.237 12.884,3.211 1.04,-0.006 2.603,-0.097 4.514,-0.542 0.43,-0.05 1.358,-0.088 2.176,0.48 0.928,0.646 1.233,1.679 1.34,2.465 0.077,0.562 0.141,1.336 0.087,2.254 -0.039,0.673 -0.137,2.132 -0.872,3.777 -0.635,1.424 -1.454,2.332 -1.882,2.797 -2.613,2.847 -7.439,5.022 -12.464,4.62 -1.262,-0.101 -2.911,-0.252 -4.646,-1.326 -0.059,-0.036 -0.138,-0.086 -0.232,-0.148 -0.599,-0.395 -2.561,-1.736 -3.216,-4.133 -0.136,-0.501 -0.298,-1.349 -0.163,-2.449 0.521,-5.802 0.903,-10.003 0.947,-10.633 M 2.1338202,83.502546 c 0.012,-0.009 0.025,-0.018 0.039,-0.026 2.968,-1.747 5.937,-3.495 8.9049998,-5.243 0.033,-0.019 0.062,-0.042 0.087,-0.07 0.014,-0.017 0.03,-0.036 0.043,-0.059 0.049,-0.081 0.06,-0.159 0.062,-0.201 0.419,-5.79 0.78,-10.034 0.895,-10.404 0.072,-0.232 0.214,-0.411 0.214,-0.411 0.06,-0.075 0.191,-0.239 0.409,-0.324 0.253,-0.097 0.485,-0.037 0.712,0.02 0.134,0.034 0.329,0.099 0.544,0.232 0.02,0.012 0.039,0.027 0.055,0.042 2.444,2.243 4.887,4.486 7.33,6.728 0.036,0.037 0.122,0.116 0.259,0.154 0.129,0.035 0.236,0.016 0.286,0.003 5.473,-1.301 9.373,-2.23 9.876,-2.373 0.056,-0.016 0.343,-0.101 0.705,-0.052 0.145,0.02 0.407,0.059 0.57,0.211 0.245,0.228 0.258,0.695 0.068,1.163 -1.328,3.123 -2.654,6.245 -3.981,9.367 -0.027,0.061 -0.068,0.179 -0.062,0.331 0.005,0.137 0.046,0.242 0.077,0.303 0.004,0.009 0.009,0.018 0.014,0.027 1.775,2.9 3.549,5.8 5.323,8.7 0.016,0.027 0.029,0.055 0.038,0.084 0.03,0.099 0.06,0.233 0.066,0.394 0.006,0.155 0.01,0.292 -0.057,0.44 -0.078,0.168 -0.207,0.258 -0.347,0.351 0,0 -0.248,0.168 -0.551,0.245 -0.665,0.169 -1.785,-0.059 -1.957,-0.097 -0.014,-0.003 -0.028,-0.005 -0.042,-0.006 -0.991,-0.097 -1.983,-0.196 -2.976,-0.295 -1.822,-0.182 -3.638,-0.367 -5.449,-0.554 -0.062,-0.007 -0.125,0.001 -0.181,0.027 -0.007,0.003 -0.014,0.006 -0.02,0.009 -0.054,0.029 -0.089,0.064 -0.11,0.087 -0.385,0.468 -6.657,8.058004 -7.332,8.309004 -0.304,0.113 -0.554,0.05 -0.554,0.05 0,0 -0.249,-0.062 -0.457,-0.296 -0.469,-0.526004 -2.317,-9.938004 -2.456,-10.646004 -0.002,-0.012 -0.004,-0.023 -0.008,-0.034 -0.018,-0.058 -0.052,-0.14 -0.117,-0.223 -0.102,-0.129 -0.225,-0.188 -0.287,-0.213 -3.2209998,-1.297 -6.4439998,-2.595 -9.6659998,-3.892 -0.054,-0.022 -0.103,-0.057 -0.141,-0.101 -0.116,-0.135 -0.326,-0.442 -0.301,-0.869 0.031,-0.51 0.375,-0.811 0.475,-0.888 M 30.388193,66.255391 c -3.091,-4.19 -2.064,-8.966 -1.892,-9.705 2.028,-8.688 3.512,-15.031 3.579,-15.313 0.011,-0.046 0.043,-0.165 0.143,-0.23 0.128,-0.083 0.304,-0.016 0.363,0.005 0.444,0.162 15.471,7.109 18.136,8.341 0.398,0.207 1.007,0.599 1.45,1.298 0.472,0.746 0.538,1.515 0.555,2.063 0.089,2.749 -0.806,7.658 -0.89,8.111 -0.112,0.938 -0.364,2.144 -0.934,3.451 -1.167,2.675 -3.02,4.284 -4.058,5.055 0,0 -3.696,2.363 -8.595,1.505 -0.143,-0.025 -0.258,-0.048 -0.34,-0.064 -0.899,-0.179 -4.93,-1.009 -7.517,-4.517 M 0.99798889,45.241712 c 4.56300001,-11.863 10.85400011,-30.3 11.26300011,-31.59 0.007,-0.023 0.037,-0.118 0.08,-0.246 0.109,-0.322 0.303,-0.857 0.601,-1.49 0.416,-0.886 1.905,-4.04 4.927,-5.808 2.708,-1.584 7.12,-2.33 10.819,0.053 4.185,2.695 4.579,7.539 4.615,8.096 0.009,0.087 0.021,0.299 -0.091,0.531 -0.121,0.251 -0.314,0.377 -0.389,0.421 -2.052,0.801 -5.079,2.343 -7.732,5.306 -1.269,1.418 -3.316,3.705 -3.936,7.269 -0.212,1.219 -0.743,4.271 0.964,6.694 0.956,1.357 2.481,2.271 2.481,2.271 1.051,0.668 1.68,1.067 2.179,1.383 0.741,0.469 1.124,0.709 1.365,1.206 0.261,0.54 0.215,1.095 0.147,1.447 -0.239,1.066 -0.96,4.282 -1.596,6.975 -0.178,0.756 -0.342,1.437 -0.503,2.098 -0.219,0.895 -0.448,1.836 -0.724,2.887 -0.22,0.839 -0.576,2.149 -0.748,2.702 -0.16,0.51 -1.202,3.855 -4.085,5.999 -2.392,1.778 -4.985,1.936 -6.212,1.994 -4.8580001,0.23 -11.3570001,-2.241 -13.60100011,-7.756 -1.93499999,-4.752 0.007,-10.002 0.175,-10.44 0,0 0.001,-0.002 0.001,-0.002 M 81.578595,49.43222 c -5.354,4.156 -12.718,3.556 -12.718,3.556 -1.034,-0.13 -2.182,-0.329 -3.416,-0.631 0,0 -1.578,-0.387 -3.184,-0.97 -4.658,-1.69 -22.089,-10.652 -29.296,-14.179 -5.639,-2.76 -7.815,-3.56 -8.498,-5.96 -1.126,-3.955 2.873,-8.483 5.37,-10.516 4.383,-3.569 9.406,-3.748 12.065,-3.843 7.311,-0.261 12.993,2.662 15.935,4.53 0.064,0.041 0.121,0.055 0.174,0.05 0,0 0.205,-0.011 0.393,-0.369 0.175,-0.332 3.392,-13.4810003 -4.005,-24.6250003 -6.37,-9.5979997 -18.337,-14.3769997 -28.726,-14.3889997 -15.555,-0.017 -30.2839999,10.7689997 -37.303,27.2849997 -0.089,0.222 -0.289,0.6310003 -0.709,0.9780003 -0.159,0.13 -0.712,0.585 -1.259,0.507 -0.67,-0.097 -1.279,-0.9900003 -1.295,-2.1960003 0.859,-3.935 3.799,-14.945 13.92100015,-24.1889997 9.60999995,-8.777 20.16199985,-10.911 24.20399985,-11.518 1.889,-0.239 3.927,-0.408 6.097,-0.463 4.048,-0.105 8.835,0.178 14.16,1.29 0,0 0.845,0.179 1.625,0.362 22.916,5.378 33.55,23.8819997 35.403,27.2569997 9.945,18.1080003 9.148,41.7560003 1.062,48.0330003 M 52.792413,12.264715 c 0,0 2.961,1.966 3.727,5.25 0.017,0.071 0.062,0.265 -0.029,0.337 -0.091,0.072 -0.271,-0.015 -0.333,-0.047 -1.866,-1.148 -4.823,-2.654 -8.716,-3.437 -2.986,-0.601 -5.58,-0.587 -7.483,-0.428 -0.101,-0.022 -0.338,-0.089 -0.396,-0.263 -0.055,-0.163 0.063,-0.35 0.125,-0.404 0.783,-0.691 2.751,-2.236 5.711,-2.655 1.152,-0.164 4.362,-0.365 7.394,1.647 m 41.025001,-63.884822 h -121.465 c -15.104,0 -27.463,12.358 -27.463,27.463 v 121.465 c 0,15.104997 12.359,27.463997 27.463,27.463997 h 121.465 c 15.104996,0 27.462996,-12.359 27.462996,-27.463997 v -121.465 c 0,-15.105 -12.358,-27.463 -27.462996,-27.463" />
      </g>
    </g>
    <g
       id="g1453"
       style="fill:#ffffff;fill-opacity:1">
      <g
         transform="matrix(0.16257696,0,0,-0.16257696,-319.17701,217.68772)"
         id="g4771"
         style="fill:#ffffff;fill-opacity:1" />
      <g
         transform="matrix(0.16257696,0,0,-0.16257696,-315.37518,221.92656)"
         id="g4775"
         style="fill:#ffffff;fill-opacity:1">
        <path
           id="path4777"
           style="fill:#ffffff;fill-opacity:1;fill-rule:nonzero;stroke:none"
           d="M 0,0 -3.407,9.638 H -29.085 L -32.681,0 -56.408,0.017 -27.203,69.077 H -3.681 L 24.413,0 Z m 38.134,83.56 c 0,0 -25.337,6.437 -54.132,6.437 -0.228,0 -0.452,-0.003 -0.672,-0.009 -33.236,-0.346 -60.067,-26.29 -60.067,-58.249 0,-32.175 27.194,-58.257 60.739,-58.257 33.546,0 60.74,26.082 60.74,58.257 0,0 0,28.435 -6.608,51.821 M -23.384802,26.072821 h 14.3290001 l -6.9420001,19.722 z m 68.119247,-80.529799 h -121.465 c -15.104,0 -27.463005,12.359 -27.463005,27.464 v 121.465 c 0,15.104998 12.359005,27.462998 27.463005,27.462998 h 121.465 c 15.105,0 27.463,-12.358 27.463,-27.462998 v -121.465 c 0,-15.105 -12.358,-27.464 -27.463,-27.464" />
      </g>
    </g>
  </g>
</svg>
